# This file uses centimeters as units for non-parametric coordinates.

v 32.912903 -62.958725 7.754517
v 38.451042 -62.958725 7.754517
v 36.629829 227.310425 -0.467377
v 42.167931 227.310425 -0.467377
v 36.629829 227.310425 -6.005402
v 42.167931 227.310425 -6.005402
v 32.912903 -62.958725 2.216339
v 38.451042 -62.958725 2.216339
v 33.276787 126.745544 3.917084
v 42.313004 126.745544 3.917084
v 34.964333 209.067062 1.281738
v 44.000511 209.067062 1.281738
v 34.964333 209.067062 -7.754517
v 44.000511 209.067062 -7.754517
v 33.276787 126.745544 -5.119019
v 42.313004 126.745544 -5.119019
v -44.000477 134.316086 -2.657776
v 34.376373 133.577667 0.118713
v -44.000477 203.787979 -2.657776
v 36.197701 203.369904 -1.782990
v -44.000477 203.787979 -6.115112
v 36.197701 203.369904 -5.240326
v -44.000477 134.316086 -6.115112
v 34.376373 133.577667 -3.338623
v 9.319687 203.310486 -4.343872
v 9.319687 132.393509 -4.576111
v 9.319687 132.393509 -1.118774
v 9.319687 203.310486 -0.886536
vt 0.271960 0.306325
vt 0.271960 0.306325
vt 0.271960 0.306325
vt 0.271960 0.306325
vt 0.271960 0.306325
vt 0.271960 0.306325
vt 0.271960 0.306325
vt 0.271960 0.306325
vt 0.271960 0.306325
vt 0.271960 0.306325
vt 0.271960 0.306325
vt 0.271960 0.306325
vt 0.271960 0.306325
vt 0.271960 0.306325
vt 0.245446 0.306325
vt 0.245446 0.306325
vt 0.245446 0.306325
vt 0.245446 0.306325
vt 0.245446 0.306325
vt 0.245446 0.306325
vt 0.245446 0.306325
vt 0.245446 0.306325
vt 0.245446 0.306325
vt 0.245446 0.306325
vt 0.245446 0.306325
vt 0.245446 0.306325
vt 0.245446 0.306325
vt 0.245446 0.306325
vt 0.245446 0.306325
vt 0.245446 0.306325
vt 0.245446 0.306325
vt 0.245446 0.306325
vt 0.245446 0.306325
vt 0.245446 0.306325
vt 0.245446 0.306325
vt 0.245446 0.306325
vt 0.245446 0.306325
vt 0.245446 0.306325
vt 0.245446 0.306325
vt 0.245446 0.306325
vt 0.245446 0.306325
vt 0.245446 0.306325
vt 0.245446 0.306325
vt 0.246125 0.303973
vt 0.246124 0.303973
vt 0.246124 0.303973
vt 0.246125 0.303973
vn 0.000000 0.028314 0.999599
vn 0.000000 0.028314 0.999599
vn 0.000000 0.028314 0.999599
vn 0.000000 0.028314 0.999599
vn 0.000000 1.000000 0.000000
vn 0.000000 1.000000 0.000000
vn 0.000000 1.000000 0.000000
vn 0.000000 1.000000 0.000000
vn 0.000000 -0.028313 -0.999599
vn 0.000000 -0.028313 -0.999599
vn 0.000000 -0.028313 -0.999599
vn 0.000000 -0.028313 -0.999599
vn 0.000000 -1.000000 0.000000
vn 0.000000 -1.000000 0.000000
vn 0.000000 -1.000000 0.000000
vn 0.000000 -1.000000 0.000000
vn 0.999918 -0.012804 0.000000
vn 0.999918 -0.012804 0.000000
vn 0.999918 -0.012804 0.000000
vn 0.999918 -0.012804 0.000000
vn -0.999918 0.012804 0.000000
vn -0.999918 0.012804 0.000000
vn -0.999918 0.012804 0.000000
vn -0.999918 0.012804 0.000000
vn 0.000000 0.031996 0.999488
vn 0.000000 0.031996 0.999488
vn 0.000000 0.031996 0.999488
vn 0.000000 0.031996 0.999488
vn 0.000000 1.000000 0.000000
vn 0.000000 1.000000 0.000000
vn 0.000000 1.000000 0.000000
vn 0.000000 1.000000 0.000000
vn 0.000000 -0.031998 -0.999488
vn 0.000000 -0.031998 -0.999488
vn 0.000000 -0.031998 -0.999488
vn 0.000000 -0.031998 -0.999488
vn 0.000000 -1.000000 0.000000
vn 0.000000 -1.000000 0.000000
vn 0.000000 -1.000000 0.000000
vn 0.000000 -1.000000 0.000000
vn 0.999790 -0.020495 0.000000
vn 0.999790 -0.020495 0.000000
vn 0.999790 -0.020495 0.000000
vn 0.999790 -0.020495 0.000000
vn -0.999790 0.020495 0.000000
vn -0.999790 0.020495 0.000000
vn -0.999790 0.020495 0.000000
vn -0.999790 0.020495 0.000000
vn -0.023150 0.002795 0.999728
vn -0.031063 -0.001653 0.999516
vn -0.031063 -0.001653 0.999516
vn -0.023167 0.002785 0.999728
vn 0.005213 0.999986 0.000000
vn 0.008955 0.999960 0.000000
vn 0.008955 0.999960 0.000000
vn 0.005213 0.999986 0.000000
vn 0.023167 -0.002785 -0.999728
vn 0.031063 0.001653 -0.999516
vn 0.031063 0.001653 -0.999516
vn 0.023150 -0.002795 -0.999728
vn -0.008518 -0.999964 0.000000
vn -0.036034 -0.999351 0.000000
vn -0.036034 -0.999351 0.000000
vn -0.010320 -0.999947 0.000000
vn 0.023150 -0.002795 -0.999728
vn 0.006852 -0.011952 -0.999905
vn 0.006852 -0.011952 -0.999905
vn 0.023167 -0.002785 -0.999728
vn -0.008518 -0.999964 0.000000
vn -0.010320 -0.999947 0.000000
vn 0.047206 -0.998885 0.000000
vn 0.047206 -0.998885 0.000000
vn -0.023150 0.002795 0.999728
vn -0.023167 0.002785 0.999728
vn -0.006852 0.011952 0.999905
vn -0.006852 0.011952 0.999905
vn 0.005213 0.999986 0.000000
vn 0.005213 0.999986 0.000000
vn -0.002211 0.999998 0.000000
vn -0.002211 0.999998 0.000000
vn -1.000000 0.000000 0.000000
vn -1.000000 0.000000 0.000000
vn -1.000000 0.000000 0.000000
vn -1.000000 0.000000 0.000000
s off
f 1/1/1 2/2/2 4/3/3 3/4/4
f 3/4/5 4/3/6 6/5/7 5/6/8
f 5/6/9 6/5/10 8/7/11 7/8/12
f 7/8/13 8/7/14 2/9/15 1/10/16
f 2/2/17 8/11/18 6/12/19 4/3/20
f 7/13/21 1/1/22 3/4/23 5/14/24
f 9/15/25 10/16/26 12/17/27 11/18/28
f 11/18/29 12/17/30 14/19/31 13/20/32
f 13/20/33 14/19/34 16/21/35 15/22/36
f 15/22/37 16/21/38 10/23/39 9/24/40
f 10/16/41 16/25/42 14/26/43 12/17/44
f 15/27/45 9/15/46 11/18/47 13/28/48
f 28/40/49 19/30/50 17/29/51 27/41/52
f 25/34/53 21/31/54 19/30/55 28/40/56
f 26/37/57 23/32/58 21/31/59 25/34/60
f 27/38/61 17/33/62 23/32/63 26/37/64
f 25/34/65 22/35/66 24/36/67 26/37/68
f 27/38/69 26/37/70 24/36/71 18/39/72
f 28/40/73 27/41/74 18/42/75 20/43/76
f 25/34/77 28/40/78 20/43/79 22/35/80
f 21/44/81 23/45/82 17/46/83 19/47/84
