# This file uses centimeters as units for non-parametric coordinates.

v -53.760647 -62.958725 -0.467377
v -48.222504 -62.958725 -0.467377
v -60.416336 227.310425 -0.467377
v -54.878235 227.310425 -0.467377
v -60.416336 227.310425 -6.005402
v -54.878235 227.310425 -6.005402
v -53.760647 -62.958725 -6.005402
v -48.222504 -62.958725 -6.005402
v 51.077805 -62.958725 7.754517
v 56.615944 -62.958725 7.754517
v 54.794731 227.310425 -0.467377
v 60.332832 227.310425 -0.467377
v 54.794731 227.310425 -6.005402
v 60.332832 227.310425 -6.005402
v 51.077805 -62.958725 2.216339
v 56.615944 -62.958725 2.216339
v -59.864655 126.745544 1.586609
v -50.828434 126.745544 1.586609
v -62.165375 209.067062 1.281738
v -53.129196 209.067062 1.281738
v -62.165375 209.067062 -7.754517
v -53.129196 209.067062 -7.754517
v -59.864655 126.745544 -7.449646
v -50.828434 126.745544 -7.449646
v 51.441689 126.745544 3.917084
v 60.477905 126.745544 3.917084
v 53.129234 209.067062 1.281738
v 62.165413 209.067062 1.281738
v 53.129234 209.067062 -7.754517
v 62.165413 209.067062 -7.754517
v 51.441689 126.745544 -5.119019
v 60.477905 126.745544 -5.119019
v -53.129154 133.170349 -1.507721
v 52.541275 133.577667 0.118713
v -53.129154 202.642242 -1.507721
v 54.362602 203.369904 -1.782990
v -53.129154 202.642242 -4.965057
v 54.362602 203.369904 -5.240326
v -53.129154 133.170349 -4.965057
v 52.541275 133.577667 -3.338623
v 31.334114 200.985352 -0.233765
v 31.334114 130.068375 -0.466003
v 31.334114 130.068375 2.991333
v 31.334114 200.985352 3.223572
v -2.292175 200.788239 6.028290
v -2.292175 200.788239 2.570953
v -2.292175 128.565552 1.872101
v -2.292175 128.565552 5.329437
v -29.332504 200.985352 3.223572
v -29.332504 200.985352 -0.233765
v -29.332504 130.068375 -0.466003
v -29.332504 130.068375 2.991333
vt 0.271960 0.306325
vt 0.271960 0.306325
vt 0.271960 0.306325
vt 0.271960 0.306325
vt 0.271960 0.306325
vt 0.271960 0.306325
vt 0.271960 0.306325
vt 0.271960 0.306325
vt 0.271960 0.306325
vt 0.271960 0.306325
vt 0.271960 0.306325
vt 0.271960 0.306325
vt 0.271960 0.306325
vt 0.271960 0.306325
vt 0.271960 0.306325
vt 0.271960 0.306325
vt 0.271960 0.306325
vt 0.271960 0.306325
vt 0.271960 0.306325
vt 0.271960 0.306325
vt 0.271960 0.306325
vt 0.271960 0.306325
vt 0.271960 0.306325
vt 0.271960 0.306325
vt 0.271960 0.306325
vt 0.271960 0.306325
vt 0.271960 0.306325
vt 0.271960 0.306325
vt 0.245446 0.306325
vt 0.245446 0.306325
vt 0.245446 0.306325
vt 0.245446 0.306325
vt 0.245446 0.306325
vt 0.245446 0.306325
vt 0.245446 0.306325
vt 0.245446 0.306325
vt 0.245446 0.306325
vt 0.245446 0.306325
vt 0.245446 0.306325
vt 0.245446 0.306325
vt 0.245446 0.306325
vt 0.245446 0.306325
vt 0.245446 0.306325
vt 0.245446 0.306325
vt 0.245446 0.306325
vt 0.245446 0.306325
vt 0.245446 0.306325
vt 0.245446 0.306325
vt 0.245446 0.306325
vt 0.245446 0.306325
vt 0.245446 0.306325
vt 0.245446 0.306325
vt 0.245446 0.306325
vt 0.245446 0.306325
vt 0.245446 0.306325
vt 0.245446 0.306325
vt 0.245446 0.306325
vt 0.245446 0.306325
vt 0.245446 0.306325
vt 0.245446 0.306325
vt 0.245446 0.306325
vt 0.245446 0.306325
vt 0.245446 0.306325
vt 0.245446 0.306325
vt 0.245446 0.306325
vt 0.245446 0.306325
vt 0.245446 0.306325
vt 0.245446 0.306325
vt 0.245446 0.306325
vt 0.245446 0.306325
vt 0.245446 0.306325
vt 0.245446 0.306325
vt 0.245446 0.306325
vt 0.245446 0.306325
vt 0.245446 0.306325
vt 0.245446 0.306325
vt 0.245446 0.306325
vt 0.245446 0.306325
vt 0.245446 0.306325
vt 0.245446 0.306325
vt 0.245446 0.306325
vn 0.000000 0.000000 1.000000
vn 0.000000 0.000000 1.000000
vn 0.000000 0.000000 1.000000
vn 0.000000 0.000000 1.000000
vn 0.000000 1.000000 0.000000
vn 0.000000 1.000000 0.000000
vn 0.000000 1.000000 0.000000
vn 0.000000 1.000000 0.000000
vn 0.000000 0.000000 -1.000000
vn 0.000000 0.000000 -1.000000
vn 0.000000 0.000000 -1.000000
vn 0.000000 0.000000 -1.000000
vn 0.000000 -1.000000 0.000000
vn 0.000000 -1.000000 0.000000
vn 0.000000 -1.000000 0.000000
vn 0.000000 -1.000000 0.000000
vn 0.999737 0.022923 0.000000
vn 0.999737 0.022923 0.000000
vn 0.999737 0.022923 0.000000
vn 0.999737 0.022923 0.000000
vn -0.999737 -0.022923 0.000000
vn -0.999737 -0.022923 0.000000
vn -0.999737 -0.022923 0.000000
vn -0.999737 -0.022923 0.000000
vn 0.000000 0.028314 0.999599
vn 0.000000 0.028314 0.999599
vn 0.000000 0.028314 0.999599
vn 0.000000 0.028314 0.999599
vn 0.000000 1.000000 0.000000
vn 0.000000 1.000000 0.000000
vn 0.000000 1.000000 0.000000
vn 0.000000 1.000000 0.000000
vn 0.000000 -0.028313 -0.999599
vn 0.000000 -0.028313 -0.999599
vn 0.000000 -0.028313 -0.999599
vn 0.000000 -0.028313 -0.999599
vn 0.000000 -1.000000 0.000000
vn 0.000000 -1.000000 0.000000
vn 0.000000 -1.000000 0.000000
vn 0.000000 -1.000000 0.000000
vn 0.999918 -0.012804 0.000000
vn 0.999918 -0.012804 0.000000
vn 0.999918 -0.012804 0.000000
vn 0.999918 -0.012804 0.000000
vn -0.999918 0.012804 0.000000
vn -0.999918 0.012804 0.000000
vn -0.999918 0.012804 0.000000
vn -0.999918 0.012804 0.000000
vn 0.000000 0.003703 0.999993
vn 0.000000 0.003703 0.999993
vn 0.000000 0.003703 0.999993
vn 0.000000 0.003703 0.999993
vn 0.000000 1.000000 0.000000
vn 0.000000 1.000000 0.000000
vn 0.000000 1.000000 0.000000
vn 0.000000 1.000000 0.000000
vn 0.000000 -0.003703 -0.999993
vn 0.000000 -0.003703 -0.999993
vn 0.000000 -0.003703 -0.999993
vn 0.000000 -0.003703 -0.999993
vn 0.000000 -1.000000 0.000000
vn 0.000000 -1.000000 0.000000
vn 0.000000 -1.000000 0.000000
vn 0.000000 -1.000000 0.000000
vn 0.999610 0.027938 0.000000
vn 0.999610 0.027938 0.000000
vn 0.999610 0.027938 0.000000
vn 0.999610 0.027938 0.000000
vn -0.999610 -0.027937 0.000000
vn -0.999610 -0.027937 0.000000
vn -0.999610 -0.027937 0.000000
vn -0.999610 -0.027937 0.000000
vn 0.000000 0.031996 0.999488
vn 0.000000 0.031996 0.999488
vn 0.000000 0.031996 0.999488
vn 0.000000 0.031996 0.999488
vn 0.000000 1.000000 0.000000
vn 0.000000 1.000000 0.000000
vn 0.000000 1.000000 0.000000
vn 0.000000 1.000000 0.000000
vn 0.000000 -0.031998 -0.999488
vn 0.000000 -0.031998 -0.999488
vn 0.000000 -0.031998 -0.999488
vn 0.000000 -0.031998 -0.999488
vn 0.000000 -1.000000 0.000000
vn 0.000000 -1.000000 0.000000
vn 0.000000 -1.000000 0.000000
vn 0.000000 -1.000000 0.000000
vn 0.999790 -0.020495 0.000000
vn 0.999790 -0.020495 0.000000
vn 0.999790 -0.020495 0.000000
vn 0.999790 -0.020495 0.000000
vn -0.999790 0.020495 0.000000
vn -0.999790 0.020495 0.000000
vn -0.999790 0.020495 0.000000
vn -0.999790 0.020495 0.000000
vn -0.190551 -0.001624 0.981676
vn -0.136875 -0.004358 0.990579
vn -0.140801 -0.004160 0.990029
vn -0.190551 -0.001624 0.981676
vn 0.069459 0.997585 0.000000
vn 0.033424 0.999441 0.000000
vn 0.039328 0.999226 0.000000
vn 0.069459 0.997585 0.000000
vn 0.190551 0.001624 -0.981676
vn 0.140801 0.004160 -0.990029
vn 0.136875 0.004358 -0.990579
vn 0.190551 0.001624 -0.981676
vn -0.129260 -0.991611 0.000000
vn -0.093306 -0.995637 0.000000
vn -0.086946 -0.996213 0.000000
vn -0.129260 -0.991611 0.000000
vn -0.116712 -0.000055 -0.993166
vn -0.174133 -0.009429 -0.984677
vn -0.174133 -0.009429 -0.984677
vn -0.112020 0.000708 -0.993706
vn 0.087362 -0.996177 0.000000
vn 0.094646 -0.995511 0.000000
vn 0.163257 -0.986584 0.000000
vn 0.163257 -0.986584 0.000000
vn 0.116712 0.000055 0.993166
vn 0.112020 -0.000708 0.993706
vn 0.174133 0.009429 0.984677
vn 0.174133 0.009429 0.984677
vn -0.049847 0.998757 0.000000
vn -0.040982 0.999160 0.000000
vn -0.102997 0.994682 0.000000
vn -0.102997 0.994682 0.000000
vn -0.000044 1.000000 0.000000
vn -0.040982 0.999160 0.000000
vn -0.049847 0.998757 0.000000
vn 0.000039 1.000000 0.000000
vn -0.000296 0.006505 -0.999979
vn 0.000033 0.006505 -0.999979
vn -0.116712 -0.000055 -0.993166
vn -0.112020 0.000708 -0.993706
vn 0.000278 -1.000000 0.000000
vn -0.000252 -1.000000 0.000000
vn 0.094646 -0.995511 0.000000
vn 0.087362 -0.996177 0.000000
vn -0.000033 -0.006505 0.999979
vn 0.000296 -0.006505 0.999979
vn 0.112020 -0.000708 0.993706
vn 0.116712 0.000055 0.993166
vn 0.033424 0.999441 0.000000
vn -0.000044 1.000000 0.000000
vn 0.000039 1.000000 0.000000
vn 0.039328 0.999226 0.000000
vn 0.136875 0.004358 -0.990579
vn 0.140801 0.004160 -0.990029
vn 0.000033 0.006505 -0.999979
vn -0.000296 0.006505 -0.999979
vn -0.086946 -0.996213 0.000000
vn -0.093306 -0.995637 0.000000
vn -0.000252 -1.000000 0.000000
vn 0.000278 -1.000000 0.000000
vn -0.140801 -0.004160 0.990029
vn -0.136875 -0.004358 0.990579
vn 0.000296 -0.006505 0.999979
vn -0.000033 -0.006505 0.999979
s off
f 1/1/1 2/2/2 4/4/3 3/3/4
f 3/3/5 4/4/6 6/6/7 5/5/8
f 5/5/9 6/6/10 8/8/11 7/7/12
f 7/7/13 8/8/14 2/10/15 1/9/16
f 2/2/17 8/11/18 6/12/19 4/4/20
f 7/13/21 1/1/22 3/3/23 5/14/24
f 9/15/25 10/16/26 12/17/27 11/18/28
f 11/18/29 12/17/30 14/19/31 13/20/32
f 13/20/33 14/19/34 16/21/35 15/22/36
f 15/22/37 16/21/38 10/23/39 9/24/40
f 10/16/41 16/25/42 14/26/43 12/17/44
f 15/27/45 9/15/46 11/18/47 13/28/48
f 17/29/49 18/30/50 20/31/51 19/32/52
f 19/32/53 20/31/54 22/33/55 21/34/56
f 21/34/57 22/33/58 24/35/59 23/36/60
f 23/36/61 24/35/62 18/37/63 17/38/64
f 18/30/65 24/39/66 22/40/67 20/31/68
f 23/41/69 17/29/70 19/32/71 21/42/72
f 25/43/73 26/44/74 28/45/75 27/46/76
f 27/46/77 28/45/78 30/47/79 29/48/80
f 29/48/81 30/47/82 32/49/83 31/50/84
f 31/50/85 32/49/86 26/51/87 25/52/88
f 26/44/89 32/53/90 30/54/91 28/45/92
f 31/55/93 25/43/94 27/46/95 29/56/96
f 33/57/97 52/58/98 49/59/99 35/60/100
f 35/60/101 49/59/102 50/61/103 37/62/104
f 37/62/105 50/61/106 51/63/107 39/64/108
f 39/64/109 51/63/110 52/65/111 33/66/112
f 41/67/113 38/68/114 40/69/115 42/70/116
f 43/71/117 42/70/118 40/69/119 34/72/120
f 44/73/121 43/74/122 34/75/123 36/76/124
f 41/67/125 44/73/126 36/76/127 38/68/128
f 45/77/129 44/73/130 41/67/131 46/78/132
f 47/79/133 46/78/134 41/67/135 42/70/136
f 48/80/137 47/79/138 42/70/139 43/71/140
f 45/77/141 48/81/142 43/74/143 44/73/144
f 49/59/145 45/77/146 46/78/147 50/61/148
f 51/63/149 50/61/150 46/78/151 47/79/152
f 52/65/153 51/63/154 47/79/155 48/80/156
f 49/59/157 52/58/158 48/81/159 45/77/160
