# This file uses centimeters as units for non-parametric coordinates.

v 98.263367 15.401659 0.000000
v 98.263367 105.617447 0.000000
v -98.263336 15.401659 0.000000
v -98.263336 105.617447 0.000000
v -3.739662 95.500656 0.000000
v 0.000000 15.401659 0.000000
v 98.263367 15.401659 0.000000
v 98.263367 105.617447 0.000000
v -98.263336 15.401659 0.000000
v -98.263336 105.617447 0.000000
v -98.263336 0.000000 1.604004
v -98.263344 0.000000 -1.604004
v -98.263336 109.427917 1.604004
v -98.263344 109.427917 -1.604004
v -101.471329 109.427917 1.604004
v -101.471313 109.427917 -1.604004
v -101.471329 0.000000 1.604004
v -101.471313 0.000000 -1.604004
v 101.471329 0.000000 1.604004
v 101.471329 0.000000 -1.604004
v 101.471329 109.427917 1.604004
v 101.471329 109.427917 -1.604004
v 98.263321 109.427917 1.604004
v 98.263359 109.427917 -1.604004
v 98.263321 0.000000 1.604004
v 98.263359 0.000000 -1.604004
v -3.739662 95.500656 0.000000
v 0.000000 15.401659 0.000000
vt -2.027003 1.621645
vt -2.027003 -0.621645
vt 3.027003 1.621645
vt 3.027003 -0.621645
vt 0.500000 -0.621645
vt 0.500000 1.621645
vt -2.027003 -0.621645
vt 0.500000 -0.621645
vt -2.027003 1.621645
vt 0.500000 1.621645
vt 0.080020 0.328911
vt 0.080020 0.328911
vt 0.080020 0.328911
vt 0.080020 0.328911
vt 0.080020 0.328911
vt 0.080020 0.328911
vt 0.080020 0.328911
vt 0.080020 0.328911
vt 0.080020 0.328911
vt 0.080020 0.328911
vt 0.080020 0.328911
vt 0.080020 0.328911
vt 0.080020 0.328911
vt 0.080020 0.328911
vt 0.080020 0.328911
vt 0.080020 0.328911
vt 0.080020 0.328911
vt 0.080020 0.328911
vt 0.080020 0.328911
vt 0.080020 0.328911
vt 0.080020 0.328911
vt 0.080020 0.328911
vt 0.080020 0.328911
vt 0.080020 0.328911
vt 0.080020 0.328911
vt 0.080020 0.328911
vt 0.080020 0.328911
vt 0.080020 0.328911
vt 3.027003 1.621645
vt 3.027003 -0.621645
vn 0.000000 0.000000 -1.000000
vn 0.000000 0.000000 -1.000000
vn 0.000000 0.000000 -1.000000
vn 0.000000 0.000000 -1.000000
vn 0.000000 0.000000 -1.000000
vn 0.000000 0.000000 -1.000000
vn 0.000000 0.000000 -1.000000
vn 0.000000 0.000000 -1.000000
vn 0.000000 0.000000 -1.000000
vn 0.000000 0.000000 -1.000000
vn 0.000000 0.000000 -1.000000
vn 0.000000 0.000000 -1.000000
vn 0.000000 0.000000 1.000000
vn 0.000000 0.000000 1.000000
vn 0.000000 0.000000 1.000000
vn 0.000000 0.000000 1.000000
vn 0.000000 0.000000 1.000000
vn 0.000000 0.000000 1.000000
vn 1.000000 0.000000 -0.000002
vn 1.000000 0.000000 -0.000002
vn 1.000000 0.000000 -0.000002
vn 1.000000 0.000000 -0.000002
vn 0.000000 1.000000 0.000000
vn 0.000000 1.000000 0.000000
vn 0.000000 1.000000 0.000000
vn 0.000000 1.000000 0.000000
vn -1.000000 0.000000 -0.000005
vn -1.000000 0.000000 -0.000005
vn -1.000000 0.000000 -0.000005
vn -1.000000 0.000000 -0.000005
vn 0.000000 -1.000000 0.000000
vn 0.000000 -1.000000 0.000000
vn 0.000000 -1.000000 0.000000
vn 0.000000 -1.000000 0.000000
vn 0.000000 0.000000 -1.000000
vn 0.000000 0.000000 -1.000000
vn 0.000000 0.000000 -1.000000
vn 0.000000 0.000000 -1.000000
vn 0.000000 0.000000 1.000000
vn 0.000000 0.000000 1.000000
vn 0.000000 0.000000 1.000000
vn 0.000000 0.000000 1.000000
vn 1.000000 0.000000 0.000000
vn 1.000000 0.000000 0.000000
vn 1.000000 0.000000 0.000000
vn 1.000000 0.000000 0.000000
vn 0.000000 1.000000 0.000000
vn 0.000000 1.000000 0.000000
vn 0.000000 1.000000 0.000000
vn 0.000000 1.000000 0.000000
vn -1.000000 0.000000 -0.000012
vn -1.000000 0.000000 -0.000012
vn -1.000000 0.000000 -0.000012
vn -1.000000 0.000000 -0.000012
vn 0.000000 -1.000000 0.000000
vn 0.000000 -1.000000 0.000000
vn 0.000000 -1.000000 0.000000
vn 0.000000 -1.000000 0.000000
vn 0.000000 0.000000 -1.000000
vn 0.000000 0.000000 -1.000000
vn 0.000000 0.000000 -1.000000
vn 0.000000 0.000000 -1.000000
vn 0.000000 0.000000 1.000000
vn 0.000000 0.000000 1.000000
vn 0.000000 0.000000 1.000000
vn 0.000000 0.000000 1.000000
vn 0.000000 0.000000 1.000000
vn 0.000000 0.000000 1.000000
vn 0.000000 0.000000 1.000000
vn 0.000000 0.000000 1.000000
vn 0.000000 0.000000 1.000000
vn 0.000000 0.000000 1.000000
s off
f 2/2/1 1/1/2 5/5/3
f 1/1/4 6/6/5 5/5/6
f 6/6/7 3/3/8 5/5/9
f 3/3/10 4/4/11 5/5/12
f 8/7/13 27/8/14 7/9/15
f 7/9/16 27/8/17 28/10/18
f 11/11/19 12/12/20 14/13/21 13/14/22
f 13/14/23 14/13/24 16/15/25 15/16/26
f 15/16/27 16/15/28 18/17/29 17/18/30
f 17/18/31 18/17/32 12/19/33 11/20/34
f 12/12/35 18/21/36 16/22/37 14/13/38
f 17/23/39 11/11/40 13/14/41 15/24/42
f 19/25/43 20/26/44 22/27/45 21/28/46
f 21/28/47 22/27/48 24/29/49 23/30/50
f 23/30/51 24/29/52 26/31/53 25/32/54
f 25/32/55 26/31/56 20/33/57 19/34/58
f 20/26/59 26/35/60 24/36/61 22/27/62
f 25/37/63 19/25/64 21/28/65 23/38/66
f 28/10/67 27/8/68 9/39/69
f 9/39/70 27/8/71 10/40/72
