# This file uses centimeters as units for non-parametric coordinates.

v 98.263367 15.401659 0.000000
v 90.813477 105.648201 0.000000
v -98.263336 15.401659 0.000000
v -92.413940 107.126671 0.000000
v -49.131683 92.565910 -11.681671
v -49.131683 11.236893 0.000000
v -0.300179 88.744499 -15.544739
v 0.000000 8.509026 0.000000
v 49.131699 92.565910 -11.681671
v 49.131660 11.236893 0.000000
v -96.890976 60.425793 0.000000
v -49.131660 56.830322 -4.749451
v -0.977707 51.566582 -3.018494
v 49.131660 56.830322 -4.749451
v 95.560905 60.271866 -0.097919
v 98.263367 15.401659 0.000000
v 90.813477 105.648201 0.000000
v -98.263336 15.401659 0.000000
v -92.413940 107.126671 0.000000
v -98.263336 0.000000 1.604004
v -98.263344 0.000000 -1.604004
v -92.413956 110.937134 1.604004
v -92.413940 110.937134 -1.604004
v -95.621925 110.937134 1.604004
v -95.621933 110.937134 -1.604004
v -101.471329 0.000000 1.604004
v -101.471313 0.000000 -1.604004
v 101.471329 0.000000 1.604004
v 101.471329 0.000000 -1.604004
v 94.021454 109.458664 1.604004
v 94.021454 109.458664 -1.604004
v 90.813484 109.458664 1.604004
v 90.813477 109.458664 -1.604004
v 98.263321 0.000000 1.604004
v 98.263359 0.000000 -1.604004
v -49.131683 92.565910 -11.681671
v -49.131683 11.236893 0.000000
v -0.300179 88.744499 -15.544739
v 0.000000 8.509026 0.000000
v 49.131699 92.565910 -11.681671
v 49.131660 11.236893 0.000000
v -96.890976 60.425793 0.000000
v -49.131660 56.830322 -4.749451
v -0.977707 51.566582 -3.018494
v 49.131660 56.830322 -4.749451
v 95.560905 60.271866 -0.097919
vt -2.027003 1.621645
vt -2.027003 -0.621645
vt 3.027003 1.621645
vt 3.027003 -0.621645
vt 1.763502 -0.621645
vt 1.763502 1.621645
vt 0.500000 -0.621645
vt 0.500000 1.621645
vt -0.763502 -0.621645
vt -0.763502 1.621645
vt 3.027003 0.500000
vt 1.763502 0.500000
vt 0.500000 0.500000
vt -0.763502 0.500000
vt -2.027003 0.500000
vt -2.027003 0.500000
vt -2.027003 -0.621645
vt -0.763502 -0.621645
vt -0.763502 0.500000
vt 0.080020 0.328911
vt 0.080020 0.328911
vt 0.080020 0.328911
vt 0.080020 0.328911
vt 0.080020 0.328911
vt 0.080020 0.328911
vt 0.080020 0.328911
vt 0.080020 0.328911
vt 0.080020 0.328911
vt 0.080020 0.328911
vt 0.080020 0.328911
vt 0.080020 0.328911
vt 0.080020 0.328911
vt 0.080020 0.328911
vt 0.080020 0.328911
vt 0.080020 0.328911
vt 0.080020 0.328911
vt 0.080020 0.328911
vt 0.080020 0.328911
vt 0.080020 0.328911
vt 0.080020 0.328911
vt 0.080020 0.328911
vt 0.080020 0.328911
vt 0.080020 0.328911
vt 0.080020 0.328911
vt 0.080020 0.328911
vt 0.080020 0.328911
vt 0.080020 0.328911
vt 1.763502 0.500000
vt 1.763502 -0.621645
vt 3.027003 -0.621645
vt 3.027003 0.500000
vt 0.500000 0.500000
vt 0.500000 -0.621645
vt 1.763502 1.621645
vt 3.027003 1.621645
vt 0.500000 1.621645
vt -0.763502 1.621645
vt -2.027003 1.621645
vn 0.117846 -0.060779 -0.991170
vn 0.066221 -0.116874 -0.990937
vn 0.126461 -0.158055 -0.979299
vn 0.194668 -0.071035 -0.978294
vn -0.067584 -0.115370 -0.991021
vn -0.118411 -0.061279 -0.991072
vn -0.191027 -0.071947 -0.978944
vn -0.128035 -0.154210 -0.979707
vn -0.000108 -0.160204 -0.987084
vn -0.067584 -0.115370 -0.991021
vn -0.128035 -0.154210 -0.979707
vn 0.000467 -0.257851 -0.966185
vn 0.066221 -0.116874 -0.990937
vn -0.000108 -0.160204 -0.987084
vn 0.000467 -0.257851 -0.966185
vn 0.126461 -0.158055 -0.979299
vn -0.020112 -0.069995 -0.997345
vn -0.053007 -0.051466 -0.997267
vn -0.118411 -0.061279 -0.991072
vn -0.067584 -0.115370 -0.991021
vn -0.000156 -0.087291 -0.996183
vn -0.020112 -0.069995 -0.997345
vn -0.067584 -0.115370 -0.991021
vn -0.000108 -0.160204 -0.987084
vn 0.019500 -0.070624 -0.997312
vn -0.000156 -0.087291 -0.996183
vn -0.000108 -0.160204 -0.987084
vn 0.066221 -0.116874 -0.990937
vn 0.052671 -0.051864 -0.997264
vn 0.019500 -0.070624 -0.997312
vn 0.066221 -0.116874 -0.990937
vn 0.117846 -0.060779 -0.991170
vn -0.117846 0.060780 0.991170
vn -0.194668 0.071035 0.978294
vn -0.126461 0.158055 0.979299
vn -0.066221 0.116874 0.990937
vn 0.998613 -0.052654 0.000001
vn 0.998613 -0.052654 0.000001
vn 0.998613 -0.052654 0.000001
vn 0.998613 -0.052654 0.000001
vn 0.000000 1.000000 0.000000
vn 0.000000 1.000000 0.000000
vn 0.000000 1.000000 0.000000
vn 0.000000 1.000000 0.000000
vn -0.998613 0.052654 -0.000001
vn -0.998613 0.052654 -0.000001
vn -0.998613 0.052654 -0.000001
vn -0.998613 0.052654 -0.000001
vn 0.000000 -1.000000 0.000000
vn 0.000000 -1.000000 0.000000
vn 0.000000 -1.000000 0.000000
vn 0.000000 -1.000000 0.000000
vn 0.000000 0.000000 -1.000000
vn 0.000000 0.000000 -1.000000
vn 0.000000 0.000000 -1.000000
vn 0.000000 0.000000 -1.000000
vn 0.000000 0.000000 1.000000
vn 0.000000 0.000000 1.000000
vn 0.000000 0.000000 1.000000
vn 0.000000 0.000000 1.000000
vn 0.997692 0.067904 0.000000
vn 0.997692 0.067904 0.000000
vn 0.997692 0.067904 0.000000
vn 0.997692 0.067904 0.000000
vn 0.000000 1.000000 0.000000
vn 0.000000 1.000000 0.000000
vn 0.000000 1.000000 0.000000
vn 0.000000 1.000000 0.000000
vn -0.997692 -0.067904 -0.000005
vn -0.997692 -0.067904 -0.000005
vn -0.997692 -0.067904 -0.000005
vn -0.997692 -0.067904 -0.000005
vn 0.000000 -1.000000 0.000000
vn 0.000000 -1.000000 0.000000
vn 0.000000 -1.000000 0.000000
vn 0.000000 -1.000000 0.000000
vn 0.000000 0.000000 -1.000000
vn 0.000000 0.000000 -1.000000
vn 0.000000 0.000000 -1.000000
vn 0.000000 0.000000 -1.000000
vn 0.000000 0.000000 1.000000
vn 0.000000 0.000000 1.000000
vn 0.000000 0.000000 1.000000
vn 0.000000 0.000000 1.000000
vn 0.067584 0.115370 0.991021
vn 0.128035 0.154210 0.979707
vn 0.191027 0.071947 0.978944
vn 0.118411 0.061279 0.991072
vn 0.000108 0.160204 0.987084
vn -0.000467 0.257851 0.966185
vn 0.128035 0.154210 0.979707
vn 0.067584 0.115370 0.991021
vn -0.066221 0.116874 0.990937
vn -0.126461 0.158055 0.979299
vn -0.000467 0.257851 0.966185
vn 0.000108 0.160204 0.987084
vn 0.020112 0.069995 0.997345
vn 0.067584 0.115370 0.991021
vn 0.118411 0.061279 0.991072
vn 0.053007 0.051466 0.997267
vn 0.000156 0.087291 0.996183
vn 0.000108 0.160204 0.987084
vn 0.067584 0.115370 0.991021
vn 0.020112 0.069995 0.997345
vn -0.019500 0.070624 0.997312
vn -0.066221 0.116874 0.990937
vn 0.000108 0.160204 0.987084
vn 0.000156 0.087291 0.996183
vn -0.052671 0.051864 0.997264
vn -0.117846 0.060780 0.991170
vn -0.066221 0.116874 0.990937
vn -0.019500 0.070624 0.997312
s off
f 15/15/1 14/14/2 9/9/3 2/2/4
f 12/12/5 11/11/6 4/4/7 5/5/8
f 13/13/9 12/12/10 5/5/11 7/7/12
f 14/14/13 13/13/14 7/7/15 9/9/16
f 6/6/17 3/3/18 11/11/19 12/12/20
f 8/8/21 6/6/22 12/12/23 13/13/24
f 10/10/25 8/8/26 13/13/27 14/14/28
f 1/1/29 10/10/30 14/14/31 15/15/32
f 46/16/33 17/17/34 40/18/35 45/19/36
f 20/20/37 21/21/38 23/22/39 22/23/40
f 22/23/41 23/22/42 25/24/43 24/25/44
f 24/25/45 25/24/46 27/26/47 26/27/48
f 26/27/49 27/26/50 21/28/51 20/29/52
f 21/21/53 27/30/54 25/31/55 23/22/56
f 26/32/57 20/20/58 22/23/59 24/33/60
f 28/34/61 29/35/62 31/36/63 30/37/64
f 30/37/65 31/36/66 33/38/67 32/39/68
f 32/39/69 33/38/70 35/40/71 34/41/72
f 34/41/73 35/40/74 29/42/75 28/43/76
f 29/35/77 35/44/78 33/45/79 31/36/80
f 34/46/81 28/34/82 30/37/83 32/47/84
f 43/48/85 36/49/86 19/50/87 42/51/88
f 44/52/89 38/53/90 36/49/91 43/48/92
f 45/19/93 40/18/94 38/53/95 44/52/96
f 37/54/97 43/48/98 42/51/99 18/55/100
f 39/56/101 44/52/102 43/48/103 37/54/104
f 41/57/105 45/19/106 44/52/107 39/56/108
f 16/58/109 46/16/110 45/19/111 41/57/112
