# This file uses centimeters as units for non-parametric coordinates.

v -55.188290 -62.958725 3.146210
v -49.650154 -62.958725 3.146210
v -37.369804 211.121704 -7.830353
v -31.831703 211.121704 -7.830353
v -37.369804 211.121704 -13.368378
v -31.831703 211.121704 -13.368378
v -55.188290 -62.958725 -2.391815
v -49.650154 -62.958725 -2.391815
v 49.650154 -62.958725 11.368103
v 55.188293 -62.958725 11.368103
v 26.681862 216.511475 7.845306
v 32.219963 216.511475 7.845306
v 26.681862 216.511475 2.307281
v 32.219963 216.511475 2.307281
v 49.650154 -62.958725 5.829926
v 55.188293 -62.958725 5.829926
v -49.889641 57.655090 0.701599
v -40.902973 56.710373 0.703430
v -42.840652 139.619553 -2.749481
v -33.853989 138.674850 -2.747650
v -42.886658 139.164734 -11.774139
v -33.899994 138.220001 -11.772308
v -49.935684 57.200218 -8.323059
v -40.948978 56.255554 -8.321228
v 39.181862 53.356216 12.474976
v 48.133659 54.452713 11.912537
v 31.190033 136.428864 10.663147
v 40.141792 137.525314 10.100861
v 30.620995 136.449448 1.644897
v 39.572754 137.545929 1.082611
v 38.612823 53.376816 3.456726
v 47.564621 54.473297 2.894440
v -41.864094 63.706013 -3.677368
v 40.965195 64.386787 9.938965
v -35.030018 132.807755 -5.820160
v 32.185707 133.645721 7.936707
v -35.124592 132.709976 -9.274750
v 32.078400 133.627151 4.481049
v -41.958652 63.608242 -7.132111
v 40.857849 64.368210 6.483459
v 17.639275 122.833855 9.563446
v 25.649834 52.380001 8.398285
v 25.794296 52.350708 11.852570
v 17.783775 122.804565 13.017731
v -1.805458 115.592819 13.368530
v -1.805458 115.592819 9.911194
v -1.805458 43.370148 9.212341
v -1.805458 43.370148 12.669678
v -23.028221 119.489632 7.649231
v -23.028221 119.489632 4.191895
v -23.028221 48.572662 3.959656
v -23.028221 48.572662 7.416992
vt 0.271960 0.306325
vt 0.271960 0.306325
vt 0.271960 0.306325
vt 0.271960 0.306325
vt 0.271960 0.306325
vt 0.271960 0.306325
vt 0.271960 0.306325
vt 0.271960 0.306325
vt 0.271960 0.306325
vt 0.271960 0.306325
vt 0.271960 0.306325
vt 0.271960 0.306325
vt 0.271960 0.306325
vt 0.271960 0.306325
vt 0.271960 0.306325
vt 0.271960 0.306325
vt 0.271960 0.306325
vt 0.271960 0.306325
vt 0.271960 0.306325
vt 0.271960 0.306325
vt 0.271960 0.306325
vt 0.271960 0.306325
vt 0.271960 0.306325
vt 0.271960 0.306325
vt 0.271960 0.306325
vt 0.271960 0.306325
vt 0.271960 0.306325
vt 0.271960 0.306325
vt 0.245446 0.306325
vt 0.245446 0.306325
vt 0.245446 0.306325
vt 0.245446 0.306325
vt 0.245446 0.306325
vt 0.245446 0.306325
vt 0.245446 0.306325
vt 0.245446 0.306325
vt 0.245446 0.306325
vt 0.245446 0.306325
vt 0.245446 0.306325
vt 0.245446 0.306325
vt 0.245446 0.306325
vt 0.245446 0.306325
vt 0.245446 0.306325
vt 0.245446 0.306325
vt 0.245446 0.306325
vt 0.245446 0.306325
vt 0.245446 0.306325
vt 0.245446 0.306325
vt 0.245446 0.306325
vt 0.245446 0.306325
vt 0.245446 0.306325
vt 0.245446 0.306325
vt 0.245446 0.306325
vt 0.245446 0.306325
vt 0.245446 0.306325
vt 0.245446 0.306325
vt 0.245446 0.306325
vt 0.245446 0.306325
vt 0.245446 0.306325
vt 0.245446 0.306325
vt 0.245446 0.306325
vt 0.245446 0.306325
vt 0.245446 0.306325
vt 0.245446 0.306325
vt 0.245446 0.306325
vt 0.245446 0.306325
vt 0.245446 0.306325
vt 0.245446 0.306325
vt 0.245446 0.306325
vt 0.245446 0.306325
vt 0.245446 0.306325
vt 0.245446 0.306325
vt 0.245446 0.306325
vt 0.245446 0.306325
vt 0.245446 0.306325
vt 0.245446 0.306325
vt 0.245446 0.306325
vt 0.245446 0.306325
vt 0.245446 0.306325
vt 0.245446 0.306325
vt 0.245446 0.306325
vn 0.000000 0.040017 0.999199
vn 0.000000 0.040017 0.999199
vn 0.000000 0.040017 0.999199
vn 0.000000 0.040017 0.999199
vn 0.000000 1.000000 0.000000
vn 0.000000 1.000000 0.000000
vn 0.000000 1.000000 0.000000
vn 0.000000 1.000000 0.000000
vn 0.000000 -0.040017 -0.999199
vn 0.000000 -0.040017 -0.999199
vn 0.000000 -0.040017 -0.999199
vn 0.000000 -0.040017 -0.999199
vn 0.000000 -1.000000 0.000000
vn 0.000000 -1.000000 0.000000
vn 0.000000 -1.000000 0.000000
vn 0.000000 -1.000000 0.000000
vn 0.997894 -0.064875 0.000000
vn 0.997893 -0.064875 0.000000
vn 0.997894 -0.064875 0.000000
vn 0.997893 -0.064875 0.000000
vn -0.997893 0.064875 0.000000
vn -0.997893 0.064875 0.000000
vn -0.997893 0.064875 0.000000
vn -0.997893 0.064875 0.000000
vn 0.000000 0.012604 0.999921
vn 0.000000 0.012604 0.999921
vn 0.000000 0.012604 0.999921
vn 0.000000 0.012604 0.999921
vn 0.000000 1.000000 0.000000
vn 0.000000 1.000000 0.000000
vn 0.000000 1.000000 0.000000
vn 0.000000 1.000000 0.000000
vn 0.000000 -0.012604 -0.999921
vn 0.000000 -0.012604 -0.999921
vn 0.000000 -0.012604 -0.999921
vn 0.000000 -0.012604 -0.999921
vn 0.000000 -1.000000 0.000000
vn 0.000000 -1.000000 0.000000
vn 0.000000 -1.000000 0.000000
vn 0.000000 -1.000000 0.000000
vn 0.996640 0.081909 0.000000
vn 0.996640 0.081909 0.000000
vn 0.996640 0.081909 0.000000
vn 0.996640 0.081909 0.000000
vn -0.996640 -0.081909 0.000000
vn -0.996640 -0.081909 0.000000
vn -0.996640 -0.081909 0.000000
vn -0.996640 -0.081909 0.000000
vn 0.004181 0.041708 0.999121
vn 0.004181 0.041708 0.999121
vn 0.004181 0.041708 0.999121
vn 0.004181 0.041708 0.999121
vn 0.104425 0.993245 -0.050591
vn 0.104425 0.993245 -0.050591
vn 0.104425 0.993245 -0.050591
vn 0.104425 0.993245 -0.050591
vn -0.004181 -0.041708 -0.999121
vn -0.004181 -0.041708 -0.999121
vn -0.004181 -0.041708 -0.999121
vn -0.004181 -0.041708 -0.999121
vn -0.104421 -0.993245 0.050593
vn -0.104421 -0.993246 0.050593
vn -0.104421 -0.993245 0.050593
vn -0.104421 -0.993245 0.050593
vn 0.996319 -0.085716 -0.000759
vn 0.996319 -0.085716 -0.000759
vn 0.996319 -0.085716 -0.000759
vn 0.996319 -0.085716 -0.000759
vn -0.996319 0.085716 0.000761
vn -0.996319 0.085716 0.000761
vn -0.996319 0.085716 0.000761
vn -0.996319 0.085716 0.000761
vn 0.059322 0.027470 0.997861
vn 0.059322 0.027470 0.997861
vn 0.059322 0.027470 0.997861
vn 0.059322 0.027470 0.997861
vn -0.120959 0.992608 0.009899
vn -0.120959 0.992608 0.009899
vn -0.120959 0.992608 0.009899
vn -0.120959 0.992608 0.009899
vn -0.059314 -0.027470 -0.997861
vn -0.059314 -0.027470 -0.997861
vn -0.059314 -0.027470 -0.997861
vn -0.059314 -0.027470 -0.997861
vn 0.120961 -0.992608 -0.009899
vn 0.120961 -0.992608 -0.009899
vn 0.120961 -0.992608 -0.009899
vn 0.120961 -0.992608 -0.009899
vn 0.993589 0.094224 -0.062479
vn 0.993589 0.094224 -0.062479
vn 0.993589 0.094224 -0.062479
vn 0.993589 0.094224 -0.062479
vn -0.993589 -0.094223 0.062479
vn -0.993589 -0.094223 0.062479
vn -0.993589 -0.094223 0.062479
vn -0.993589 -0.094223 0.062479
vn -0.599607 0.040172 0.799285
vn -0.370985 0.008971 0.928595
vn -0.464383 0.021366 0.885377
vn -0.599607 0.040172 0.799285
vn 0.750010 0.661136 -0.019615
vn 0.366006 0.930592 -0.006089
vn 0.542155 0.840191 -0.012103
vn 0.750010 0.661135 -0.019615
vn 0.597435 -0.040087 -0.800915
vn 0.463065 -0.021323 -0.886068
vn 0.370848 -0.009028 -0.928650
vn 0.597435 -0.040087 -0.800915
vn -0.631023 -0.775517 0.019601
vn -0.494432 -0.869126 0.012508
vn -0.409211 -0.912403 0.008248
vn -0.631023 -0.775517 0.019601
vn -0.120977 -0.010295 -0.992602
vn -0.207151 -0.030754 -0.977825
vn -0.207151 -0.030754 -0.977826
vn -0.079092 -0.000404 -0.996867
vn 0.437312 -0.899169 -0.015931
vn 0.443348 -0.896203 -0.016190
vn 0.618277 -0.785601 -0.023750
vn 0.618277 -0.785601 -0.023750
vn 0.120693 0.010214 0.992637
vn 0.078790 0.000330 0.996891
vn 0.207445 0.030788 0.977762
vn 0.207445 0.030788 0.977762
vn -0.475454 0.879572 0.017238
vn -0.457262 0.889181 0.016380
vn -0.594726 0.803601 0.022919
vn -0.594726 0.803602 0.022919
vn -0.104487 0.994507 0.006209
vn -0.457262 0.889181 0.016380
vn -0.475454 0.879572 0.017238
vn -0.061958 0.998065 0.005303
vn 0.111271 0.008983 -0.993749
vn 0.099564 0.009197 -0.994989
vn -0.120977 -0.010295 -0.992602
vn -0.079092 -0.000404 -0.996867
vn 0.097274 -0.995236 -0.006604
vn 0.060250 -0.998166 -0.005902
vn 0.443348 -0.896203 -0.016190
vn 0.437312 -0.899169 -0.015931
vn -0.099314 -0.009204 0.995014
vn -0.110738 -0.008995 0.993809
vn 0.078790 0.000330 0.996891
vn 0.120693 0.010214 0.992637
vn 0.366006 0.930592 -0.006089
vn -0.104487 0.994507 0.006209
vn -0.061958 0.998065 0.005303
vn 0.542155 0.840191 -0.012103
vn 0.370848 -0.009028 -0.928650
vn 0.463065 -0.021323 -0.886068
vn 0.099564 0.009197 -0.994989
vn 0.111271 0.008983 -0.993749
vn -0.409211 -0.912403 0.008248
vn -0.494432 -0.869126 0.012508
vn 0.060250 -0.998166 -0.005902
vn 0.097274 -0.995236 -0.006604
vn -0.464383 0.021366 0.885377
vn -0.370985 0.008971 0.928595
vn -0.110738 -0.008995 0.993809
vn -0.099314 -0.009204 0.995014
s off
f 1/1/1 2/2/2 4/4/3 3/3/4
f 3/3/5 4/4/6 6/6/7 5/5/8
f 5/5/9 6/6/10 8/8/11 7/7/12
f 7/7/13 8/8/14 2/10/15 1/9/16
f 2/2/17 8/11/18 6/12/19 4/4/20
f 7/13/21 1/1/22 3/3/23 5/14/24
f 9/15/25 10/16/26 12/17/27 11/18/28
f 11/18/29 12/17/30 14/19/31 13/20/32
f 13/20/33 14/19/34 16/21/35 15/22/36
f 15/22/37 16/21/38 10/23/39 9/24/40
f 10/16/41 16/25/42 14/26/43 12/17/44
f 15/27/45 9/15/46 11/18/47 13/28/48
f 17/29/49 18/30/50 20/31/51 19/32/52
f 19/32/53 20/31/54 22/33/55 21/34/56
f 21/34/57 22/33/58 24/35/59 23/36/60
f 23/36/61 24/35/62 18/37/63 17/38/64
f 18/30/65 24/39/66 22/40/67 20/31/68
f 23/41/69 17/29/70 19/32/71 21/42/72
f 25/43/73 26/44/74 28/45/75 27/46/76
f 27/46/77 28/45/78 30/47/79 29/48/80
f 29/48/81 30/47/82 32/49/83 31/50/84
f 31/50/85 32/49/86 26/51/87 25/52/88
f 26/44/89 32/53/90 30/54/91 28/45/92
f 31/55/93 25/43/94 27/46/95 29/56/96
f 33/57/97 52/58/98 49/59/99 35/60/100
f 35/60/101 49/59/102 50/61/103 37/62/104
f 37/62/105 50/61/106 51/63/107 39/64/108
f 39/64/109 51/63/110 52/65/111 33/66/112
f 41/67/113 38/68/114 40/69/115 42/70/116
f 43/71/117 42/70/118 40/69/119 34/72/120
f 44/73/121 43/74/122 34/75/123 36/76/124
f 41/67/125 44/73/126 36/76/127 38/68/128
f 45/77/129 44/73/130 41/67/131 46/78/132
f 47/79/133 46/78/134 41/67/135 42/70/136
f 48/80/137 47/79/138 42/70/139 43/71/140
f 45/77/141 48/81/142 43/74/143 44/73/144
f 49/59/145 45/77/146 46/78/147 50/61/148
f 51/63/149 50/61/150 46/78/151 47/79/152
f 52/65/153 51/63/154 47/79/155 48/80/156
f 49/59/157 52/58/158 48/81/159 45/77/160
