# This file uses centimeters as units for non-parametric coordinates.

v 32.912903 -62.958725 7.754517
v 38.451042 -62.958725 7.754517
v 36.629829 227.310425 -0.467377
v 42.167931 227.310425 -0.467377
v 36.629829 227.310425 -6.005402
v 42.167931 227.310425 -6.005402
v 32.912903 -62.958725 2.216339
v 38.451042 -62.958725 2.216339
v 33.276787 126.745544 3.917084
v 42.313004 126.745544 3.917084
v 34.964333 209.067062 1.281738
v 44.000511 209.067062 1.281738
v 34.964333 209.067062 -7.754517
v 44.000511 209.067062 -7.754517
v 33.276787 126.745544 -5.119019
v 42.313004 126.745544 -5.119019
v -44.000473 169.052017 -2.657776
v 34.376373 133.577667 0.118713
v 36.197701 203.369904 -1.782990
v -44.000473 169.052017 -6.115112
v 36.197701 203.369904 -5.240326
v 34.376373 133.577667 -3.338623
vt 0.271960 0.306325
vt 0.271960 0.306325
vt 0.271960 0.306325
vt 0.271960 0.306325
vt 0.271960 0.306325
vt 0.271960 0.306325
vt 0.271960 0.306325
vt 0.271960 0.306325
vt 0.271960 0.306325
vt 0.271960 0.306325
vt 0.271960 0.306325
vt 0.271960 0.306325
vt 0.271960 0.306325
vt 0.271960 0.306325
vt 0.245446 0.306325
vt 0.245446 0.306325
vt 0.245446 0.306325
vt 0.245446 0.306325
vt 0.245446 0.306325
vt 0.245446 0.306325
vt 0.245446 0.306325
vt 0.245446 0.306325
vt 0.245446 0.306325
vt 0.245446 0.306325
vt 0.245446 0.306325
vt 0.245446 0.306325
vt 0.245446 0.306325
vt 0.245446 0.306325
vt 0.245446 0.306325
vt 0.245446 0.306325
vt 0.245446 0.306325
vt 0.245446 0.306325
vt 0.245446 0.306325
vt 0.245446 0.306325
vt 0.245446 0.306325
vt 0.245446 0.306325
vn 0.000000 0.028314 0.999599
vn 0.000000 0.028314 0.999599
vn 0.000000 0.028314 0.999599
vn 0.000000 0.028314 0.999599
vn 0.000000 1.000000 0.000000
vn 0.000000 1.000000 0.000000
vn 0.000000 1.000000 0.000000
vn 0.000000 1.000000 0.000000
vn 0.000000 -0.028313 -0.999599
vn 0.000000 -0.028313 -0.999599
vn 0.000000 -0.028313 -0.999599
vn 0.000000 -0.028313 -0.999599
vn 0.000000 -1.000000 0.000000
vn 0.000000 -1.000000 0.000000
vn 0.000000 -1.000000 0.000000
vn 0.000000 -1.000000 0.000000
vn 0.999918 -0.012804 0.000000
vn 0.999918 -0.012804 0.000000
vn 0.999918 -0.012804 0.000000
vn 0.999918 -0.012804 0.000000
vn -0.999918 0.012804 0.000000
vn -0.999918 0.012804 0.000000
vn -0.999918 0.012804 0.000000
vn -0.999918 0.012804 0.000000
vn 0.000000 0.031996 0.999488
vn 0.000000 0.031996 0.999488
vn 0.000000 0.031996 0.999488
vn 0.000000 0.031996 0.999488
vn 0.000000 1.000000 0.000000
vn 0.000000 1.000000 0.000000
vn 0.000000 1.000000 0.000000
vn 0.000000 1.000000 0.000000
vn 0.000000 -0.031998 -0.999488
vn 0.000000 -0.031998 -0.999488
vn 0.000000 -0.031998 -0.999488
vn 0.000000 -0.031998 -0.999488
vn 0.000000 -1.000000 0.000000
vn 0.000000 -1.000000 0.000000
vn 0.000000 -1.000000 0.000000
vn 0.000000 -1.000000 0.000000
vn 0.999790 -0.020495 0.000000
vn 0.999790 -0.020495 0.000000
vn 0.999790 -0.020495 0.000000
vn 0.999790 -0.020495 0.000000
vn -0.999790 0.020495 0.000000
vn -0.999790 0.020495 0.000000
vn -0.999790 0.020495 0.000000
vn -0.999790 0.020495 0.000000
vn -0.022808 0.027826 0.999353
vn -0.022808 0.027826 0.999353
vn -0.022808 0.027826 0.999353
vn -0.393408 0.919364 0.000000
vn -0.393408 0.919364 0.000000
vn -0.393408 0.919364 0.000000
vn -0.393408 0.919364 0.000000
vn 0.022808 -0.027826 -0.999353
vn 0.022808 -0.027826 -0.999353
vn 0.022808 -0.027826 -0.999353
vn -0.412343 -0.911029 0.000000
vn -0.412343 -0.911029 0.000000
vn -0.412343 -0.911029 0.000000
vn -0.412343 -0.911029 0.000000
s off
f 1/1/1 2/2/2 4/3/3 3/4/4
f 3/4/5 4/3/6 6/5/7 5/6/8
f 5/6/9 6/5/10 8/7/11 7/8/12
f 7/8/13 8/7/14 2/9/15 1/10/16
f 2/2/17 8/11/18 6/12/19 4/3/20
f 7/13/21 1/1/22 3/4/23 5/14/24
f 9/15/25 10/16/26 12/17/27 11/18/28
f 11/18/29 12/17/30 14/19/31 13/20/32
f 13/20/33 14/19/34 16/21/35 15/22/36
f 15/22/37 16/21/38 10/23/39 9/24/40
f 10/16/41 16/25/42 14/26/43 12/17/44
f 15/27/45 9/15/46 11/18/47 13/28/48
f 17/29/49 18/35/50 19/36/51
f 21/32/52 20/30/53 17/29/54 19/36/55
f 22/33/56 20/30/57 21/32/58
f 18/34/59 17/31/60 20/30/61 22/33/62
